<svg id="Layer_1" data-name="Layer 1" xmlns="http://www.w3.org/2000/svg" viewBox="0 0 56.77 62.01"><defs><style>.cls-1{fill:#231f20;fill-rule:evenodd;}</style></defs><path class="cls-1" d="M310.63,421.19a3.14,3.14,0,0,0,.43.95c.06,0,.17-.18.25-.45a14.74,14.74,0,0,1,7.86-8.22,5.92,5.92,0,0,0,1.16-.58,3.23,3.23,0,0,0-.94-.47,14.46,14.46,0,0,1-5.09-3.61,14.9,14.9,0,0,1-3.09-4.95,1.06,1.06,0,0,0-.24-.49c-.05,0-.15.2-.22.43a18.87,18.87,0,0,1-2.14,3.86,15.42,15.42,0,0,1-6.52,5c-.35.16-.38.2-.17.27a15.17,15.17,0,0,1,2.9,1.31,17.11,17.11,0,0,1,3.39,2.91A23.94,23.94,0,0,1,310.63,421.19Z" transform="translate(-301.79 -360.13)"/><path class="cls-1" d="M305.54,365.13c-2.29,3.84-2.14,12.91.32,16.63,2.76,4.15,7.9,7.68,18.42,12.78,11.23,5.42,20.64,11.22,24.35,14.93a9.91,9.91,0,0,1,3.25,6.24l.55,3.59,1.42-2.52a20.06,20.06,0,0,0,1.82-7.43c.32-4.54.16-5.23-2.13-9-2.85-4.66-7-7.81-15.34-11.71-13.68-6.43-24.36-12.92-27.92-17a12.21,12.21,0,0,1-2.76-5.86l-.4-3.21Z" transform="translate(-301.79 -360.13)"/><path class="cls-1" d="M348.86,378a3.43,3.43,0,0,0,.43.95c.06,0,.17-.19.25-.45a15.33,15.33,0,0,1,1.91-3.48,15,15,0,0,1,5.95-4.75,5.29,5.29,0,0,0,1.16-.57,3.4,3.4,0,0,0-.94-.48,14.2,14.2,0,0,1-5.09-3.61,14.8,14.8,0,0,1-3.09-4.95,1.07,1.07,0,0,0-.24-.48c-.05,0-.15.2-.22.43a18.87,18.87,0,0,1-2.14,3.86,15.45,15.45,0,0,1-6.51,5c-.36.16-.38.2-.18.27a15.17,15.17,0,0,1,2.9,1.31,17.11,17.11,0,0,1,3.39,2.91A23.94,23.94,0,0,1,348.86,378Z" transform="translate(-301.79 -360.13)"/></svg>